<?xml version="1.0" encoding="utf-8"?>
<!-- Generator: Adobe Illustrator 28.2.0, SVG Export Plug-In . SVG Version: 6.00 Build 0)  -->
<svg version="1.1" id="Chalet_Swiss_Logo" xmlns="http://www.w3.org/2000/svg" xmlns:xlink="http://www.w3.org/1999/xlink" x="0px"
	 y="0px" viewBox="0 0 2000 2000" style="enable-background:new 0 0 2000 2000;" xml:space="preserve">
<style type="text/css">
	.st0{fill:#C43030;}
</style>
<g>
	<g>
		<path class="st0" d="M320.7,1021.6c6.9,2.8,13.6,6.7,20.2,11.8c1.8,1.5,3.4,2.2,4.7,2.2c3.3,0,5.4-4.9,6.4-14.8h5.7
			c-0.7,10.7-1,29.5-1,56.6h-5.7c-1.8-10.7-3.4-18.3-4.9-23c-1.5-4.7-3.9-9.1-7.4-13.4c-4.9-6.4-11.2-11.2-18.8-14.4
			c-7.6-3.2-15.9-4.8-24.7-4.8c-10.7,0-20,3.5-27.9,10.6c-8,7.1-14.1,17.1-18.6,30.1c-4.4,13-6.6,28.3-6.6,45.9
			c0,17.9,2.4,33.2,7.1,46c4.8,12.8,11.4,22.5,19.8,29.1c8.4,6.6,18,10,28.7,10c8.2,0,16.1-1.6,23.9-4.7c7.7-3.1,13.8-7.8,18.2-14
			c3.3-4.6,5.7-9.5,7.1-14.8c1.5-5.2,2.9-13.3,4.2-24.1h5.7c0,28.2,0.3,47.9,1,59h-5.7c-0.5-5.2-1.2-9-2.1-11.2
			c-0.9-2.2-2.2-3.3-3.8-3.3c-1.3,0-3,0.7-5.2,2c-7.4,5.3-14.4,9.2-21.2,11.9c-6.7,2.7-14.8,4.1-24.3,4.1c-15.6,0-29.2-3.5-41-10.6
			c-11.7-7-20.8-17.3-27.3-30.6c-6.5-13.4-9.7-29.3-9.7-47.8c0-18,3.3-34,10-48c6.6-13.9,15.9-24.8,27.8-32.5
			c11.9-7.7,25.4-11.6,40.5-11.6C305.4,1017.4,313.8,1018.8,320.7,1021.6z"/>
		<path class="st0" d="M437.8,1094.4c4.1-10.3,9.8-17.8,17.1-22.5c7.3-4.7,15.5-7,24.7-7c11.5,0,20.2,3.1,26.1,9.3
			c3.1,3.3,5.3,7.4,6.6,12.3c1.3,4.9,2,11.6,2,19.9v65.7c0,6.7,1.4,11.4,4.2,13.9c2.8,2.5,7.6,3.8,14.5,3.8v5.2
			c-15.1-0.7-24.9-1-29.5-1c-4.6,0-13.8,0.3-27.5,1v-5.2c6.1,0,10.3-1.3,12.7-3.8c2.4-2.5,3.6-7.2,3.6-13.9V1101
			c0-9.2-1.3-16.2-3.9-21c-2.6-4.8-8-7.3-16-7.3c-6.7,0-12.7,1.9-17.8,5.7c-5.2,3.8-9.2,9.1-12.2,15.9c-3,6.8-4.4,14.5-4.4,23v54.8
			c0,6.7,1.2,11.4,3.6,13.9c2.4,2.5,6.6,3.8,12.7,3.8v5.2c-13.8-0.7-23-1-27.5-1c-4.6,0-14.4,0.3-29.5,1v-5.2
			c6.9,0,11.7-1.3,14.5-3.8c2.8-2.5,4.2-7.2,4.2-13.9v-140.2c0-7.5-1.4-13-4.2-16.5c-2.8-3.4-7.6-5.2-14.5-5.2v-5.2
			c5.2,0.5,10.3,0.7,15.2,0.7c10.3,0,18.9-1.1,25.6-3.4V1094.4z"/>
		<path class="st0" d="M572.2,1188.9c-5-5.2-7.5-12.3-7.5-21.5c0-7.4,2-13.4,6-18.2c4-4.8,8.8-8.5,14.3-11.3
			c5.5-2.8,12.7-5.7,21.8-8.9c9.2-3.1,16-6,20.4-8.6c4.4-2.6,6.6-6.1,6.6-10.6v-15.2c0-9.5-2-16-6-19.6c-4-3.5-9.6-5.3-16.8-5.3
			c-11.5,0-19.6,3-24.3,8.9c3.3,0.8,6,2.5,8.2,5.2c2.2,2.6,3.3,5.9,3.3,9.8c0,4.1-1.3,7.3-3.9,9.7c-2.6,2.4-6,3.6-10.1,3.6
			c-4.6,0-8-1.4-10.3-4.3c-2.3-2.9-3.4-6.4-3.4-10.5c0-3.9,0.9-7.2,2.8-9.8c1.9-2.6,4.7-5.2,8.5-7.9c3.9-2.8,8.9-5.1,15-6.9
			c6.1-1.8,12.7-2.7,19.9-2.7c12.8,0,22.5,3,29,9.1c4.1,3.8,6.8,8.3,8.2,13.7c1.4,5.3,2.1,12.3,2.1,21v68.4c0,4.1,0.6,7.1,1.7,8.9
			c1.1,1.8,3.1,2.7,5.9,2.7c2,0,3.8-0.4,5.5-1.3c1.7-0.9,3.6-2.2,5.5-3.8l2.7,4.2c-4.3,3.3-7.9,5.6-10.9,7c-3,1.4-6.8,2.1-11.4,2.1
			c-7.9,0-13.4-2-16.5-5.9c-3.1-3.9-4.7-9.3-4.7-16c-4.9,8.2-10.6,13.9-17,17.1c-6.4,3.2-13.6,4.8-21.6,4.8
			C584.8,1196.7,577.2,1194.1,572.2,1188.9z M633.8,1168.2v-48.2c-1.5,2.3-3.5,4.2-6.1,5.7c-2.6,1.5-6.6,3.4-12.1,5.9
			c-6.2,2.6-11.3,5.1-15.1,7.5c-3.9,2.4-7.2,5.6-10,9.7c-2.8,4.1-4.2,9.3-4.2,15.7c0,7.4,1.8,13,5.4,16.7c3.6,3.8,8.4,5.7,14.3,5.7
			C616.8,1186.8,626.1,1180.6,633.8,1168.2z"/>
		<path class="st0" d="M742.2,1172.1c0,6.7,1.4,11.4,4.2,13.9c2.8,2.5,7.6,3.8,14.5,3.8v5.2c-15.1-0.7-25-1-29.8-1
			c-4.8,0-14.7,0.3-29.8,1v-5.2c6.9,0,11.7-1.3,14.5-3.8c2.8-2.5,4.2-7.2,4.2-13.9v-140.4c0-7.5-1.4-13-4.2-16.5
			c-2.8-3.4-7.6-5.2-14.5-5.2v-5.2c5.1,0.5,10.2,0.7,15.2,0.7c10.3,0,18.9-1.1,25.6-3.4V1172.1z"/>
		<path class="st0" d="M896.2,1165.4c-2.9,9-8.5,16.8-16.6,23.2c-8.1,6.5-17.9,9.7-29.4,9.7c-11.6,0-21.7-2.7-30.3-8
			c-8.5-5.3-15-12.8-19.6-22.4c-4.5-9.6-6.8-20.7-6.8-33.3c0-14.3,2.3-26.6,6.9-37.1c4.6-10.5,11.1-18.6,19.4-24.2
			c8.4-5.7,18.1-8.5,29.3-8.5c14.8,0,26.1,4.5,34.1,13.4c8,8.9,11.9,22.5,11.9,40.7h-77c-0.5,4.6-0.7,9.8-0.7,15.7
			c0,10.8,1.8,20.2,5.3,28.3c3.5,8,8.2,14.2,14,18.6c5.8,4.3,11.9,6.5,18.3,6.5c7.9,0,14.8-1.9,20.9-5.7
			c6.1-3.8,11.1-10.1,15.2-18.9L896.2,1165.4z M828.3,1080.8c-5.6,7.5-9,18.7-10.3,33.4h53.6c0.3-12.8-1.5-23.4-5.5-32
			c-4-8.5-10-12.8-17.8-12.8C840.5,1069.5,833.9,1073.3,828.3,1080.8z"/>
		<path class="st0" d="M972,1068.5h36.4v4.9H972v95.2c0,7.4,1.4,12.7,4.1,16c2.7,3.3,6.6,4.9,11.7,4.9c5.1,0,9.4-2,13-6.1
			c3.6-4.1,6.6-10.8,9.1-20.2l4.9,1.2c-4.1,22.6-14.8,33.9-32,33.9c-5.6,0-10.2-0.7-13.8-2c-3.6-1.3-6.8-3.4-9.6-6.1
			c-3.6-3.6-6.1-8-7.5-13.3c-1.4-5.2-2.1-12.3-2.1-21.2v-82.4h-23.6v-4.9h23.6v-37.6c9.2-0.3,16.6-1.5,22.1-3.4V1068.5z"/>
		<path class="st0" d="M1186.3,1020.5c4.2,1.6,8.5,3.8,12.9,6.8c3.6,2.3,6.4,3.4,8.4,3.4c1.5,0,2.6-0.9,3.4-2.6
			c0.8-1.7,1.5-4.5,2-8.2h5.7c-0.8,9.5-1.2,26.2-1.2,50.2h-5.7c-1-13.3-4.8-24.5-11.4-33.6c-6.6-9.1-16.3-13.7-28.9-13.7
			c-8.9,0-16.1,2.7-21.6,8c-5.6,5.3-8.4,12.2-8.4,20.5c0,6.2,1.4,11.6,4.3,16.2c2.9,4.6,6.5,8.5,10.9,11.8
			c4.4,3.3,10.7,7.5,18.9,12.5l7.1,4.4c10.3,6.4,18.5,12,24.5,16.8c6,4.8,10.8,10.4,14.4,16.6c3.6,6.2,5.4,13.5,5.4,21.9
			c0,14.9-4.9,26.4-14.8,34.6c-9.8,8.1-22.3,12.2-37.4,12.2c-7.9,0-14.3-0.8-19.3-2.5c-5-1.6-9.8-3.9-14.4-6.6
			c-3.6-2.3-6.4-3.4-8.4-3.4c-1.5,0-2.6,0.9-3.4,2.6c-0.8,1.7-1.5,4.5-2,8.2h-5.7c0.7-9,1-28.7,1-59h5.7c1.1,16.6,5.2,30,12.3,40.3
			c7,10.3,17.9,15.5,32.5,15.5c8.9,0,16.4-2.7,22.6-8.2c6.2-5.5,9.3-13.7,9.3-24.5c0-9.2-3.1-17-9.2-23.4
			c-6.1-6.4-15.9-13.6-29.1-21.6c-9.7-5.9-17.5-11.1-23.5-15.7c-6-4.6-10.9-10.1-14.6-16.6c-3.8-6.5-5.7-14.1-5.7-22.7
			c0-13.8,4.4-24.3,13.3-31.6c8.9-7.3,19.8-10.9,33-10.9C1176.4,1018.1,1182.1,1018.9,1186.3,1020.5z"/>
		<path class="st0" d="M1446.1,1068.3v4.9c-3.4,0.5-6.5,2-9.1,4.6c-2.6,2.5-4.9,6.8-6.9,12.7l-35.7,105.8h-4.2l-38.9-98.9
			l-35.2,98.9h-4.2l-40.3-109c-2.3-5.7-4.6-9.5-7-11.2c-2.4-1.7-4.8-2.6-7.3-2.6v-5.2c6.4,1,13.6,1.5,21.6,1.5
			c8.2,0,18.9-0.5,32-1.5v5.2c-6.1,0-10.5,0.5-13.2,1.5c-2.7,1-4.1,3.5-4.1,7.6c0,2.9,0.8,6.8,2.5,11.6l24.6,70.8l35.4-97.6h5.7
			l37.6,99.4l23.1-70.3c1.5-4.4,2.2-8.1,2.2-11.1c0-3.9-1.4-6.8-4.2-8.6s-7.5-3-14-3.4v-4.9c8.7,0.5,15.6,0.7,20.7,0.7
			C1434.7,1069,1440.9,1068.8,1446.1,1068.3z"/>
		<path class="st0" d="M1513.3,1172.1c0,6.7,1.4,11.4,4.2,13.9c2.8,2.5,7.6,3.8,14.5,3.8v5.2c-15.1-0.7-25-1-29.8-1
			s-14.7,0.3-29.8,1v-5.2c6.9,0,11.7-1.3,14.5-3.8c2.8-2.5,4.2-7.2,4.2-13.9v-77c0-7.5-1.4-13-4.2-16.5c-2.8-3.4-7.6-5.2-14.5-5.2
			v-5.2c5.2,0.5,10.3,0.7,15.2,0.7c10.3,0,18.9-1.1,25.6-3.4V1172.1z M1511.6,1011.5c3.1,3.1,4.7,6.8,4.7,11.1c0,4.3-1.6,8-4.7,11.1
			c-3.1,3.1-6.8,4.7-11.1,4.7c-4.3,0-8-1.6-11.1-4.7c-3.1-3.1-4.7-6.8-4.7-11.1c0-4.3,1.6-8,4.7-11.1c3.1-3.1,6.8-4.7,11.1-4.7
			C1504.8,1006.8,1508.5,1008.4,1511.6,1011.5z"/>
		<path class="st0" d="M1622.7,1067.6c4.6,1.8,8.3,3.9,11.1,6.4c1.8,1.3,3.3,2,4.4,2c3,0,4.8-3.6,5.4-10.8h5.7c-0.7,8-1,22-1,41.8
			h-5.7c-1.8-10.8-5.3-19.8-10.5-26.8c-5.2-7-12.8-10.6-23-10.6c-5.9,0-10.7,1.7-14.5,5c-3.8,3.4-5.7,8-5.7,13.9
			c0,5.7,2,10.5,5.9,14.4c3.9,3.9,10.2,8.5,18.9,13.9c1.5,0.8,3.7,2.2,6.6,4.2c7.5,4.9,13.6,9.3,18.2,13c4.6,3.8,8.3,8.1,11.2,13
			s4.3,10.6,4.3,17c0,10.8-4.1,19.3-12.2,25.3c-8.1,6.1-18.1,9.1-29.9,9.1c-7.4,0-13.9-1.1-19.4-3.4c-3.6-1.8-7-4-10.1-6.6
			c-0.7-0.7-1.4-1-2.2-1c-1.1,0-2.2,0.8-3.1,2.5c-0.9,1.6-1.6,3.9-2.1,6.9h-5.7c0.7-9.3,1-25.7,1-49.2h5.7
			c1.8,15.4,5.1,26.9,9.8,34.6c4.8,7.6,12.9,11.4,24.4,11.4c5.7,0,10.8-1.9,15.2-5.7c4.4-3.8,6.6-9.7,6.6-17.7
			c0-6.4-2.2-11.8-6.5-16.2c-4.3-4.4-11.4-9.8-21.3-16c-8-5.1-14.2-9.3-18.6-12.5c-4.3-3.3-8-7.3-10.9-12c-3-4.8-4.4-10.3-4.4-16.7
			c0-10.3,3.4-18.2,10.3-23.6c6.9-5.4,15.6-8.1,26.1-8.1C1612.9,1064.9,1618.1,1065.8,1622.7,1067.6z"/>
		<path class="st0" d="M1751.1,1067.6c4.6,1.8,8.3,3.9,11.1,6.4c1.8,1.3,3.3,2,4.4,2c3,0,4.8-3.6,5.4-10.8h5.7c-0.7,8-1,22-1,41.8
			h-5.7c-1.8-10.8-5.3-19.8-10.5-26.8c-5.2-7-12.8-10.6-23-10.6c-5.9,0-10.7,1.7-14.5,5c-3.8,3.4-5.7,8-5.7,13.9
			c0,5.7,2,10.5,5.9,14.4c3.9,3.9,10.2,8.5,18.9,13.9c1.5,0.8,3.7,2.2,6.6,4.2c7.5,4.9,13.6,9.3,18.2,13c4.6,3.8,8.3,8.1,11.2,13
			s4.3,10.6,4.3,17c0,10.8-4.1,19.3-12.2,25.3c-8.1,6.1-18.1,9.1-29.9,9.1c-7.4,0-13.9-1.1-19.4-3.4c-3.6-1.8-7-4-10.1-6.6
			c-0.7-0.7-1.4-1-2.2-1c-1.1,0-2.2,0.8-3.1,2.5c-0.9,1.6-1.6,3.9-2.1,6.9h-5.7c0.7-9.3,1-25.7,1-49.2h5.7
			c1.8,15.4,5.1,26.9,9.8,34.6c4.8,7.6,12.9,11.4,24.4,11.4c5.7,0,10.8-1.9,15.2-5.7c4.4-3.8,6.6-9.7,6.6-17.7
			c0-6.4-2.2-11.8-6.5-16.2c-4.3-4.4-11.4-9.8-21.3-16c-8-5.1-14.2-9.3-18.6-12.5s-8-7.3-10.9-12c-3-4.8-4.4-10.3-4.4-16.7
			c0-10.3,3.4-18.2,10.3-23.6s15.6-8.1,26.1-8.1C1741.3,1064.9,1746.5,1065.8,1751.1,1067.6z"/>
	</g>
	<g>
		<path class="st0" d="M739.2,1283.3v80.1h-10.8V1327h-43.2v36.4h-10.8v-80.1h10.8v35.7h43.2v-35.7H739.2z"/>
		<path class="st0" d="M909.7,1323.4c0,6-0.9,11.5-2.8,16.5c-1.9,5-4.6,9.3-8.1,12.9c-3.5,3.6-7.6,6.4-12.5,8.4
			c-4.9,2-10.2,3-16.1,3c-5.9,0-11.3-1-16.1-3c-4.8-2-9-4.8-12.5-8.4c-3.5-3.6-6.1-7.9-8-12.9c-1.9-5-2.9-10.5-2.9-16.5
			c0-6,1-11.5,2.9-16.5c1.9-5,4.6-9.3,8-13c3.5-3.6,7.6-6.5,12.5-8.5c4.8-2,10.2-3,16.1-3c5.9,0,11.3,1,16.1,3c4.9,2,9,4.8,12.5,8.5
			c3.5,3.6,6.1,8,8.1,13C908.7,1311.9,909.7,1317.4,909.7,1323.4z M898.6,1323.4c0-4.9-0.7-9.3-2-13.2c-1.3-3.9-3.2-7.2-5.7-9.9
			c-2.5-2.7-5.4-4.8-8.9-6.2c-3.5-1.5-7.4-2.2-11.7-2.2c-4.3,0-8.2,0.7-11.7,2.2c-3.5,1.4-6.5,3.5-9,6.2c-2.5,2.7-4.4,6-5.7,9.9
			c-1.3,3.9-2,8.3-2,13.2c0,4.9,0.7,9.3,2,13.2c1.3,3.9,3.3,7.2,5.7,9.9c2.5,2.7,5.5,4.8,9,6.2c3.5,1.4,7.4,2.1,11.7,2.1
			c4.3,0,8.2-0.7,11.7-2.1c3.5-1.4,6.5-3.5,8.9-6.2c2.5-2.7,4.4-6,5.7-9.9C897.9,1332.8,898.6,1328.3,898.6,1323.4z"/>
		<path class="st0" d="M1051.8,1292.5h-25.9v71h-10.8v-71h-26v-9.1h62.7V1292.5z"/>
		<path class="st0" d="M1189.1,1354.6l-0.1,8.8h-49.4v-80.1h49.4v8.8h-38.5v26.6h31.2v8.5h-31.2v27.3H1189.1z"/>
		<path class="st0" d="M1325.7,1354.3v9.1h-45.4v-80.1h10.8v71H1325.7z"/>
	</g>
	<path class="st0" d="M950,769.8c-1.8-27,2.4-77.4,25.6-82.9c41-9.8,116.7,125.7,128.2,120c5.7-2.8-3.6-40.2-7.6-55.9
		c-0.1-0.3-0.4-1.4-0.5-2.9c-0.2-2,0-3.8,0.3-6.5c0.1-1.3,0.5-2.5,1.3-3.6c2-2.9,4.7-3.9,8.3-2.7c3,0.9,5.8,2.1,8.3,3.8
		c7.9,5.3,15.1,11.2,21.6,17.8c7.9,8,15.8,16.1,22.7,24.9c4.5,5.7,9.7,10.9,14.7,16.2c2.3,2.4,5.1,4.5,7.4,6.9
		c4,4.1,8.2,7.8,12.8,11.3c11.5,8.8,23.1,17.5,36,24.8c10,5.7,14.9,8.7,17.2,9.3c28.5,7.4,53.9-21.9,83.7-30.6
		c25.8-7.5,41.6,6.4,133.9,60.3c0,0,153.5,89.5,175.2,68.7c0,0,1-0.9,1-0.9c-102.7-44.3-161-88.7-196.2-123.2
		c0,0-67.5-66.3-98.5-50.7c-0.9,0.4-8.3,4.5-19.2,9.6c-6.8,3.2-15.2,6.8-25.2,10.6c-4.3,1.6-9.3,2.8-15.6,3.3
		c-56.2,4.6-107.4-53.6-113.5-65.6c-0.2-0.3-2.8-4.6-6.3-10.4c-5-8.5-11.9-15.1-21.7-19.5c-7.8-3.5-16.2-4.5-24.7-5.4
		c-3.1-0.3-6.2-0.6-9.3-1.1c-8.3-1.4-16.4-3-24.5-5.1c-15.2-3.9-29.3-10.6-41.3-19.6c-5.5-4.1-10.8-8.4-15.4-13.5
		c-5.7-6.4-12.8-11.6-20.2-16.5c0,0-6.8-3.2-15.7-4.4c-24.6-3.3-52.8,15.6-54.9,17c-51.6,35.2-129.6,123.3-159.6,130.2
		c-0.9,0.2-20.1,4.6-31.6-1.9c-0.7-0.4-2.1-1.1-3.1-1.9c-8-6.5-14-11.1-15.3-12.4c-9.4-9.4-32-19.3-33.7-20.1
		c-28.8-12.3-78.7,53.5-169.6,115c-45.9,31-91,53.4-99.9,57.7c-39.5,19.4-65.8,28.4-65.4,29.6c0.8,2,88.3-8,174.2-62.9
		c70.5-45,120.3-107.7,162.2-90.4c2.5,1,4.5,2.2,5.6,2.8l131.1,77.8c6.3,3,13.4-1.2,13.4-6.9c0-0.8-0.2-1.7-0.5-2.5
		c-5.1-13.6-7.9-27.8-8.3-41.9c-0.2-5.4,7.4-8.1,11.6-4.1c5.1,4.9,10.4,9.6,15.8,14.2c11.9,10.2,24.9,19.3,38.6,27.6
		c16.8,10.2,33.8,20.1,52.4,27.8c9.9,4.1,19.8,8.4,29.8,12.5c3.5,1.4,7,2.7,10.6,4l0.5,0.2l45.7,17.3c1.2,0.5,2.4,0.7,3.5,0.7
		c2.2,0,4.1-0.9,5.4-2.2c0.9-1,0.8-2.4-0.3-3.2c-0.1-0.1-0.2-0.2-0.4-0.3c-1-0.8-2.1-1.5-3.1-2.3c-4.3-3.1-8.8-6.1-13.1-9.3
		c0,0,0-0.1-0.1-0.1C1015,894,954.9,844.8,950,769.8z"/>
</g>
</svg>
