<?xml version="1.0" encoding="UTF-8"?>
<svg xmlns="http://www.w3.org/2000/svg" version="1.1" viewBox="0 0 504.3 252.6">
  <defs>
    <style>
      .cls-1 {
        fill: #c43032;
      }
    </style>
  </defs>
  <!-- Generator: Adobe Illustrator 28.7.1, SVG Export Plug-In . SVG Version: 1.2.0 Build 142)  -->
  <g>
    <g id="Layer_1">
      <path class="cls-1" d="M239.1,120c-.5-7,.6-20.2,6.7-21.6,10.7-2.6,30.5,32.8,33.5,31.3,1.5-.7-.9-10.5-2-14.6,0,0,0-.4-.1-.8,0-.5,0-1,0-1.7,0-.3.1-.7.3-.9.5-.8,1.2-1,2.2-.7.8.2,1.5.5,2.2,1,2.1,1.4,3.9,2.9,5.6,4.6,2.1,2.1,4.1,4.2,5.9,6.5,1.2,1.5,2.5,2.8,3.8,4.2.6.6,1.3,1.2,1.9,1.8,1,1.1,2.1,2,3.3,3,3,2.3,6,4.6,9.4,6.5,2.6,1.5,3.9,2.3,4.5,2.4,7.4,1.9,14.1-5.7,21.9-8,6.7-1.9,10.9,1.7,35,15.7,0,0,40.1,23.4,45.7,17.9,0,0,.3-.2.3-.2-26.8-11.6-42-23.2-51.2-32.2,0,0-17.6-17.3-25.7-13.2-.2.1-2.2,1.2-5,2.5-1.8.8-4,1.8-6.6,2.8-1.1.4-2.4.7-4.1.9-14.7,1.2-28-14-29.6-17.1,0,0-.7-1.2-1.6-2.7-1.3-2.2-3.1-3.9-5.7-5.1-2-.9-4.2-1.2-6.4-1.4-.8,0-1.6-.2-2.4-.3-2.2-.4-4.3-.8-6.4-1.3-4-1-7.6-2.8-10.8-5.1-1.4-1.1-2.8-2.2-4-3.5-1.5-1.7-3.3-3-5.3-4.3,0,0-1.8-.8-4.1-1.2-6.4-.9-13.8,4.1-14.3,4.4-13.5,9.2-33.8,32.2-41.7,34-.2,0-5.2,1.2-8.3-.5-.2-.1-.5-.3-.8-.5-2.1-1.7-3.7-2.9-4-3.2-2.4-2.4-8.4-5.1-8.8-5.2-7.5-3.2-20.5,14-44.3,30-12,8.1-23.8,13.9-26.1,15.1-10.3,5.1-17.2,7.4-17.1,7.7.2.5,23-2.1,45.5-16.4,18.4-11.7,31.4-28.1,42.3-23.6.7.3,1.2.6,1.5.7l34.2,20.3c1.6.8,3.5-.3,3.5-1.8s0-.4-.1-.7c-1.3-3.6-2.1-7.2-2.2-10.9,0-1.4,1.9-2.1,3-1.1,1.3,1.3,2.7,2.5,4.1,3.7,3.1,2.7,6.5,5,10.1,7.2,4.4,2.7,8.8,5.2,13.7,7.3,2.6,1.1,5.2,2.2,7.8,3.3.9.4,1.8.7,2.8,1h.1c0,0,11.9,4.6,11.9,4.6.3.1.6.2.9.2.6,0,1.1-.2,1.4-.6.2-.2.2-.6,0-.8,0,0,0,0,0,0-.3-.2-.5-.4-.8-.6-1.1-.8-2.3-1.6-3.4-2.4,0,0,0,0,0,0-5-3.8-20.7-16.6-22-36.2Z"/>
    </g>
  </g>
</svg>